# xmcd
#
# Track frame offsets: 
#        150
#        10330
#        23043
#        38046
#        59579
#        74577
#        88192
#        98392
#        111753
#        121735
#        133047
#        144094
#        156640
#        170256
#        179175
#        192456
#        206200
#        229429
#        258173
#
# Disc length: 4440 seconds
#
# Revision: 0
# Processed by: cddbd v1.5.2PL0 Copyright (c) Steve Scherf et al.
# Submitted via: ExactAudioCopy v1.0b2
#
DISCID=15115613
DTITLE=Various Artist - Diamaneter: Sjuttiotalet [CD 1)
DYEAR=2004
DGENRE=Pop
TTITLE0=Robert Broberg - Uppblåsbara Barbara
TTITLE1=Sten Nilsson - Regnet Det Bara Oser Ner
TTITLE2=Doris - Did You Give The World Some Love Today, Baby
TTITLE3=Lalla Hansson - Anna and Mej
TTITLE4=Uffe Neidemar - Häng Me' På Party
TTITLE5=Anni-Frid Lyngstad - Min Egen Stad
TTITLE6=Siv-Inger - Någon Att Alska
TTITLE7=Rasmus - Oh! Lady Mary
TTITLE8=Gunnar Wiklund - Det Ar Härligt Att Leva
TTITLE9=Monica Zetterlund - Krama Mig Och Dansa
TTITLE10=Marianne Kock - Om Hela Världen Sjöng En Sång
TTITLE11=Roger Johnsson - Snälla Pappa Vänta På Mig
TTITLE12=Alf Robertson - Lasse Och Mari
TTITLE13=Sven-Bertil Taube - Anglamark
TTITLE14=Ann-Kristin Hedmark - I Våran Värld
TTITLE15=Malta - Sommar'n Som Aldrig Säger Nej
TTITLE16=Peter Lundblad - Lika Blå Som Dina Ogon
TTITLE17=Merit Hemmingson - Jämtländsk Brudmarsch
TTITLE18=Copy Protect - Copy Protect
EXTD=
EXTT0=
EXTT1=
EXTT2=
EXTT3=
EXTT4=
EXTT5=
EXTT6=
EXTT7=
EXTT8=
EXTT9=
EXTT10=
EXTT11=
EXTT12=
EXTT13=
EXTT14=
EXTT15=
EXTT16=
EXTT17=
EXTT18=
PLAYORDER=
